<?xml version="1.0" standalone="no"?>
<!DOCTYPE svg PUBLIC "-//W3C//DTD SVG 20010904//EN"
 "http://www.w3.org/TR/2001/REC-SVG-20010904/DTD/svg10.dtd">
<svg version="1.0" xmlns="http://www.w3.org/2000/svg"
    width="1613.000000pt" height="1429.000000pt" viewBox="0 0 1613.000000 1429.000000"
    preserveAspectRatio="xMidYMid meet">
  <g transform="translate(0.000000,1429.000000) scale(0.100000,-0.100000)"
    fill="#000000" stroke="none">
  <path d="M460 7115 l0 -7085 -230 0 c-198 0 -230 -2 -230 -15 0 -13 903 -15
  8065 -15 l8065 0 0 7100 c0 4727 -3 7100 -10 7100 -7 0 -10 -2368 -10 -7085
  l0 -7085 -270 0 -270 0 0 7085 0 7085 -140 0 -140 0 0 -1615 0 -1615 -270 0
  -270 0 0 1615 0 1615 -145 0 -145 0 0 -1615 0 -1615 -270 0 -270 0 0 1615 0
  1615 -140 0 -140 0 0 -1629 0 -1629 -267 -437 -268 -436 -3 2066 -2 2065 -140
  0 -140 0 0 -2301 0 -2302 -267 -443 -268 -443 -3 2744 -2 2745 -145 0 -145 0
  0 -2980 0 -2980 -131 -215 c-72 -118 -134 -215 -137 -215 -4 0 -67 101 -139
  224 l-133 223 0 2972 0 2971 -140 0 -140 0 -2 -2742 -3 -2743 -267 443 -268
  443 0 2299 0 2300 -145 0 -145 0 -2 -2063 -3 -2063 -267 436 -268 437 0 1626
  0 1627 -140 0 -140 0 0 -1615 0 -1615 -270 0 -270 0 0 1615 0 1615 -140 0
  -140 0 0 -1615 0 -1615 -270 0 -270 0 0 1615 0 1615 -145 0 -145 0 0 -7085 0
  -7085 -270 0 -270 0 0 7085 0 7085 -140 0 -140 0 0 -7085 0 -7085 -270 0 -270
  0 0 7085 0 7085 -140 0 -140 0 0 -1615 0 -1615 -275 0 -275 0 0 1615 0 1615
  -140 0 -140 0 0 -1615 0 -1615 -270 0 -270 0 0 1615 0 1615 -140 0 -140 0 -2
  -3432 -3 -3432 -267 443 -268 444 0 2988 0 2989 -145 0 -145 0 -2 -2739 -3
  -2739 -267 445 -268 444 0 2294 0 2295 -140 0 -140 0 -2 -2060 -3 -2060 -267
  444 -268 443 0 1617 0 1616 -140 0 -140 0 0 -1615 0 -1615 -270 0 -270 0 0
  1615 0 1615 -145 0 -145 0 0 -1615 0 -1615 -270 0 -270 0 0 1615 0 1615 -140
  0 -140 0 0 -7085z m9619 -195 l261 -434 0 -3228 0 -3228 -267 2 -268 3 -3
  3670 c-1 2096 2 3665 7 3660 5 -6 126 -206 270 -445z m3561 -3230 l0 -3660
  -270 0 -270 0 0 3226 0 3226 266 434 c147 239 268 434 270 434 2 0 4 -1647 4
  -3660z m-10971 3081 l261 -433 0 -3154 0 -3154 -270 0 -270 0 0 3597 c0 2029
  4 3593 9 3588 4 -6 126 -205 270 -444z m8237 -1208 l264 -437 0 -2548 0 -2548
  -270 0 -270 0 0 2992 c0 1645 3 2989 6 2985 4 -3 125 -203 270 -444z m1912
  -2545 l-3 -2983 -267 -3 -268 -2 0 2554 0 2553 263 431 c144 237 265 431 270
  432 4 0 6 -1342 5 -2982z m-9334 2404 l266 -443 0 -2475 0 -2474 -270 0 -270
  0 0 2922 c0 1607 2 2919 4 2917 2 -2 124 -203 270 -447z m8506 -3077 l0 -2315
  -270 0 -270 0 0 2315 0 2315 270 0 270 0 0 -2315z m-7674 1699 l264 -439 0
  -1787 0 -1788 -270 0 -270 0 0 2232 c0 1227 3 2229 6 2226 3 -3 124 -203 270
  -444z m-3036 -2239 l0 -1775 -270 0 -270 0 0 1775 0 1775 270 0 270 0 0 -1775z
  m830 0 l0 -1775 -270 0 -270 0 0 1775 0 1775 270 0 270 0 0 -1775z m3290 0 l0
  -1775 -270 0 -270 0 0 1775 0 1775 270 0 270 0 0 -1775z m830 0 l0 -1775 -275
  0 -275 0 0 1775 0 1775 275 0 275 0 0 -1775z m2468 3 l-3 -1773 -267 -3 -268
  -2 0 1775 0 1775 270 0 270 0 -2 -1772z m822 -3 l0 -1775 -270 0 -270 0 0
  1775 0 1775 270 0 270 0 0 -1775z m4940 0 l0 -1775 -270 0 -270 0 0 1775 0
  1775 270 0 270 0 0 -1775z m830 0 l0 -1775 -270 0 -270 0 0 1775 0 1775 270 0
  270 0 0 -1775z"/>
  </g>
</svg>
